<svg width="156" height="48" viewBox="0 0 156 48" fill="none" xmlns="http://www.w3.org/2000/svg">
<path d="M2.54507 1.12378C2.80839 9.2125 5.39764 16.2809 15.0525 18.7948C27.0479 21.4565 32.8262 24.5175 35.0205 31.7338C29.6811 28.2587 21.6353 27.3715 19.6459 31.7338C17.5393 36.6875 21.2404 42.3807 25.2193 47.9999C5.69021 44.9685 -5.28121 17.1681 2.54507 1.12378Z" fill="#FA541C"/>
<path d="M24.1951 13.5009V8.01479L26.7697 7.11276L16.8077 0L5.68994 6.22551L11.161 8.79852C10.6138 9.62632 10.294 10.5862 10.2343 11.58C10.1746 12.5738 10.3771 13.5658 10.8212 14.4544C11.2653 15.3431 11.9351 16.0965 12.7618 16.6376C13.5886 17.1787 14.5427 17.488 15.5266 17.5339C16.5105 17.5798 17.4887 17.3606 18.3613 16.8988C19.2339 16.437 19.9694 15.7492 20.4926 14.9056C21.0158 14.0621 21.3079 13.0932 21.339 12.0981C21.3701 11.103 21.1391 10.1174 20.6696 9.24215L23.7562 8.16266V13.5009C23.5473 13.5483 23.3607 13.6666 23.2277 13.8361C23.0946 14.0056 23.023 14.2161 23.0248 14.4325V16.8725H24.9265V14.4325C24.9283 14.2161 24.8567 14.0056 24.7236 13.8361C24.5906 13.6666 24.404 13.5483 24.1951 13.5009V13.5009Z" fill="#FA541C"/>
<path d="M46.0937 33.1003V37.9123H45.1206V34.5541L43.9763 36.2617H43.4867L42.3607 34.5668V37.9123H41.3877V33.1003H42.5015L43.7376 34.9858L44.9738 33.1003H46.0937ZM49.9818 36.8267H48.152L47.7849 37.9123H46.8057L48.458 33.0432H49.6697L51.3281 37.9123H50.349L49.9818 36.8267ZM49.688 35.957L49.0639 34.1034L48.4397 35.957H49.688ZM53.2428 36.084L53.0102 36.3506V37.9123H52.0372V33.1003H53.0102V34.9223L54.5769 33.1003H55.7885L53.8731 35.3476L55.8191 37.9123H54.5952L53.2428 36.084ZM56.4895 33.1003H57.4625V37.9123H56.4895V33.1003ZM62.4316 33.1003V37.9123H61.3178L59.5003 34.7382V37.9123H58.5273V33.1003H59.6349L61.4586 36.2744V33.1003H62.4316ZM67.2019 34.9731V37.5758C66.9571 37.7197 66.692 37.8297 66.4064 37.9059C66.1208 37.9821 65.8537 38.0202 65.6047 38.0202C65.0866 38.0202 64.6481 37.9165 64.289 37.7091C63.93 37.4975 63.6587 37.2034 63.4751 36.8267C63.2957 36.4501 63.2058 36.012 63.2058 35.5126C63.2058 35.0387 63.2915 34.6133 63.4629 34.2367C63.6384 33.86 63.9055 33.5616 64.2645 33.3416C64.6236 33.1215 65.0703 33.0115 65.6047 33.0115C65.874 33.0115 66.1004 33.039 66.284 33.094C66.4717 33.1448 66.6818 33.2231 66.9143 33.3289V34.2303C66.7062 34.1118 66.5002 34.0229 66.2962 33.9637C66.0964 33.9002 65.8659 33.8685 65.6047 33.8685C65.3151 33.8685 65.0642 33.9383 64.852 34.078C64.6399 34.2176 64.4767 34.4102 64.3624 34.6556C64.2523 34.9011 64.1972 35.1804 64.1972 35.4936C64.1972 35.9972 64.3196 36.4014 64.5644 36.7061C64.8133 37.0108 65.1601 37.1632 65.6047 37.1632C65.821 37.1632 66.0352 37.1209 66.2473 37.0362V35.8428H64.9499V34.9731H67.2019ZM71.654 36.0522V37.9123H70.6994V36.0522L69.0899 33.1003H70.0691L71.1767 35.1698L72.2905 33.1003H73.2696L71.654 36.0522ZM75.99 38.0202C75.4842 38.0202 75.0558 37.9123 74.7049 37.6964C74.354 37.4763 74.0889 37.178 73.9093 36.8013C73.734 36.4204 73.6462 35.9909 73.6462 35.5126C73.6462 35.0429 73.734 34.6197 73.9093 34.243C74.0889 33.8664 74.354 33.568 74.7049 33.3479C75.0598 33.1236 75.4882 33.0115 75.99 33.0115C76.4878 33.0115 76.912 33.1236 77.2629 33.3479C77.6178 33.568 77.883 33.8685 78.0584 34.2494C78.238 34.626 78.3277 35.0471 78.3277 35.5126C78.3277 35.9909 78.238 36.4204 78.0584 36.8013C77.883 37.178 77.6199 37.4763 77.269 37.6964C76.9181 37.9123 76.4918 38.0202 75.99 38.0202ZM75.99 37.1632C76.2715 37.1632 76.5122 37.0912 76.7121 36.9473C76.9161 36.8034 77.0691 36.6067 77.1711 36.357C77.2772 36.103 77.3302 35.8152 77.3302 35.4936C77.3302 35.1847 77.2772 34.9075 77.1711 34.662C77.065 34.4165 76.91 34.224 76.706 34.0843C76.5061 33.9404 76.2675 33.8685 75.99 33.8685C75.7003 33.8685 75.4536 33.9404 75.2495 34.0843C75.0497 34.224 74.8986 34.4186 74.7967 34.6683C74.6947 34.918 74.6437 35.1995 74.6437 35.5126C74.6437 36.0036 74.76 36.4014 74.9925 36.7061C75.2251 37.0108 75.5576 37.1632 75.99 37.1632ZM81.0613 38.0202C80.4086 38.0202 79.919 37.8509 79.5926 37.5123C79.2662 37.1737 79.103 36.6934 79.103 36.0713V33.1003H80.076V36.0713C80.076 36.431 80.1577 36.704 80.3208 36.8902C80.4881 37.0722 80.7349 37.1632 81.0613 37.1632C81.3835 37.1632 81.6264 37.0722 81.7895 36.8902C81.9568 36.704 82.0404 36.431 82.0404 36.0713V33.1003H83.0134V36.0713C83.0134 36.6934 82.8522 37.1737 82.53 37.5123C82.2077 37.8509 81.7182 38.0202 81.0613 38.0202ZM87.2254 33.1003C88.3637 33.1003 88.9328 33.6209 88.9328 34.662C88.9328 35.1698 88.79 35.5571 88.5044 35.8237C88.2188 36.0861 87.7925 36.2173 87.2254 36.2173H86.387V37.9123H85.414V33.1003H87.2254ZM87.9475 34.662C87.9475 34.4165 87.8883 34.2388 87.7701 34.1288C87.6517 34.0145 87.4702 33.9573 87.2254 33.9573H86.387V35.3539H87.2254C87.466 35.3539 87.6456 35.2989 87.7639 35.1889C87.8822 35.0746 87.9434 34.899 87.9475 34.662ZM91.2002 36.0967H90.5883V37.9123H89.6152V33.1003H91.4266C92.5649 33.1003 93.134 33.6019 93.134 34.6049C93.134 35.3412 92.8179 35.8068 92.1855 36.0015L93.3298 37.9123H92.2405L91.2002 36.0967ZM90.5883 35.2397H91.4266C91.908 35.2397 92.1487 35.0281 92.1487 34.6049C92.1487 34.3806 92.0896 34.2176 91.9713 34.1161C91.8529 34.0103 91.6714 33.9573 91.4266 33.9573H90.5883V35.2397ZM96.1535 38.0202C95.6477 38.0202 95.2193 37.9123 94.8684 37.6964C94.5175 37.4763 94.2524 37.178 94.0729 36.8013C93.8975 36.4204 93.8097 35.9909 93.8097 35.5126C93.8097 35.0429 93.8975 34.6197 94.0729 34.243C94.2524 33.8664 94.5175 33.568 94.8684 33.3479C95.2233 33.1236 95.6517 33.0115 96.1535 33.0115C96.6513 33.0115 97.0755 33.1236 97.4264 33.3479C97.7813 33.568 98.0465 33.8685 98.2219 34.2494C98.4015 34.626 98.4912 35.0471 98.4912 35.5126C98.4912 35.9909 98.4015 36.4204 98.2219 36.8013C98.0465 37.178 97.7834 37.4763 97.4325 37.6964C97.0816 37.9123 96.6553 38.0202 96.1535 38.0202ZM96.1535 37.1632C96.435 37.1632 96.6758 37.0912 96.8756 36.9473C97.0797 36.8034 97.2326 36.6067 97.3346 36.357C97.4407 36.103 97.4937 35.8152 97.4937 35.4936C97.4937 35.1847 97.4407 34.9075 97.3346 34.662C97.2285 34.4165 97.0735 34.224 96.8695 34.0843C96.6696 33.9404 96.431 33.8685 96.1535 33.8685C95.8638 33.8685 95.6171 33.9404 95.4131 34.0843C95.2132 34.224 95.0622 34.4186 94.9602 34.6683C94.8583 34.918 94.8072 35.1995 94.8072 35.5126C94.8072 36.0036 94.9235 36.4014 95.156 36.7061C95.3886 37.0108 95.7211 37.1632 96.1535 37.1632ZM101.225 38.0202C100.572 38.0202 100.083 37.8509 99.7561 37.5123C99.4298 37.1737 99.2665 36.6934 99.2665 36.0713V33.1003H100.24V36.0713C100.24 36.431 100.321 36.704 100.484 36.8902C100.652 37.0722 100.899 37.1632 101.225 37.1632C101.547 37.1632 101.79 37.0722 101.953 36.8902C102.12 36.704 102.204 36.431 102.204 36.0713V33.1003H103.177V36.0713C103.177 36.6934 103.016 37.1737 102.694 37.5123C102.371 37.8509 101.882 38.0202 101.225 38.0202ZM105.842 33.1003C106.666 33.1003 107.289 33.3056 107.709 33.7161C108.133 34.1224 108.345 34.7212 108.345 35.5126C108.345 36.3083 108.135 36.9071 107.715 37.3092C107.295 37.7112 106.671 37.9123 105.842 37.9123H104.233V33.1003H105.842ZM107.354 35.4936C107.354 34.9646 107.229 34.5773 106.981 34.3319C106.732 34.0822 106.352 33.9573 105.842 33.9573H105.206V37.0553H105.842C106.36 37.0553 106.742 36.9325 106.987 36.6871C107.232 36.4374 107.354 36.0395 107.354 35.4936ZM110.472 33.1003H111.445V37.9123H110.472V33.1003ZM114.009 38.0202C113.377 38.0202 112.818 37.9017 112.332 37.6647V36.7442C112.842 37.0235 113.401 37.1632 114.009 37.1632C114.27 37.1632 114.462 37.1124 114.584 37.0108C114.711 36.9092 114.774 36.7759 114.774 36.6109C114.774 36.4501 114.717 36.3294 114.603 36.249C114.493 36.1686 114.307 36.0903 114.046 36.0142L113.63 35.8935C113.389 35.8216 113.179 35.7391 112.999 35.646C112.824 35.5486 112.675 35.4069 112.553 35.2206C112.43 35.0344 112.369 34.7932 112.369 34.4969C112.369 34.0103 112.51 33.6421 112.791 33.3924C113.077 33.1384 113.477 33.0115 113.991 33.0115C114.297 33.0115 114.566 33.0411 114.799 33.1003C115.035 33.1554 115.274 33.2421 115.515 33.3606V34.2494C115.062 33.9954 114.554 33.8685 113.991 33.8685C113.754 33.8685 113.585 33.915 113.483 34.0081C113.385 34.1012 113.336 34.2345 113.336 34.4081C113.34 34.5731 113.389 34.6937 113.483 34.7699C113.581 34.8419 113.76 34.9159 114.021 34.9921L114.444 35.1127C114.701 35.1847 114.921 35.2714 115.105 35.373C115.288 35.4746 115.439 35.6227 115.557 35.8174C115.68 36.0078 115.741 36.2575 115.741 36.5664C115.737 37.0193 115.582 37.3748 115.276 37.6329C114.97 37.8911 114.548 38.0202 114.009 38.0202ZM119.974 38.0202C119.469 38.0202 119.04 37.9123 118.689 37.6964C118.338 37.4763 118.073 37.178 117.894 36.8013C117.718 36.4204 117.631 35.9909 117.631 35.5126C117.631 35.0429 117.718 34.6197 117.894 34.243C118.073 33.8664 118.338 33.568 118.689 33.3479C119.044 33.1236 119.473 33.0115 119.974 33.0115C120.472 33.0115 120.896 33.1236 121.247 33.3479C121.602 33.568 121.868 33.8685 122.043 34.2494C122.222 34.626 122.312 35.0471 122.312 35.5126C122.312 35.9909 122.222 36.4204 122.043 36.8013C121.868 37.178 121.604 37.4763 121.253 37.6964C120.903 37.9123 120.476 38.0202 119.974 38.0202ZM119.974 37.1632C120.256 37.1632 120.497 37.0912 120.697 36.9473C120.901 36.8034 121.054 36.6067 121.156 36.357C121.262 36.103 121.315 35.8152 121.315 35.4936C121.315 35.1847 121.262 34.9075 121.156 34.662C121.049 34.4165 120.894 34.224 120.69 34.0843C120.491 33.9404 120.252 33.8685 119.974 33.8685C119.685 33.8685 119.438 33.9404 119.234 34.0843C119.034 34.224 118.883 34.4186 118.781 34.6683C118.679 34.918 118.628 35.1995 118.628 35.5126C118.628 36.0036 118.744 36.4014 118.977 36.7061C119.21 37.0108 119.542 37.1632 119.974 37.1632ZM125.046 38.0202C124.393 38.0202 123.903 37.8509 123.577 37.5123C123.251 37.1737 123.088 36.6934 123.088 36.0713V33.1003H124.061V36.0713C124.061 36.431 124.142 36.704 124.305 36.8902C124.473 37.0722 124.719 37.1632 125.046 37.1632C125.368 37.1632 125.611 37.0722 125.774 36.8902C125.941 36.704 126.025 36.431 126.025 36.0713V33.1003H126.998V36.0713C126.998 36.6934 126.837 37.1737 126.514 37.5123C126.192 37.8509 125.703 38.0202 125.046 38.0202ZM129.639 36.0967H129.027V37.9123H128.054V33.1003H129.865C131.003 33.1003 131.573 33.6019 131.573 34.6049C131.573 35.3412 131.256 35.8068 130.624 36.0015L131.768 37.9123H130.679L129.639 36.0967ZM129.027 35.2397H129.865C130.347 35.2397 130.587 35.0281 130.587 34.6049C130.587 34.3806 130.528 34.2176 130.41 34.1161C130.292 34.0103 130.11 33.9573 129.865 33.9573H129.027V35.2397ZM138.06 33.1003L136.408 37.9694H135.196L133.538 33.1003H134.542L135.802 36.9029L137.057 33.1003H138.06ZM138.781 33.1003H139.754V37.9123H138.781V33.1003ZM142.318 38.0202C141.686 38.0202 141.127 37.9017 140.641 37.6647V36.7442C141.151 37.0235 141.71 37.1632 142.318 37.1632C142.579 37.1632 142.771 37.1124 142.893 37.0108C143.02 36.9092 143.083 36.7759 143.083 36.6109C143.083 36.4501 143.026 36.3294 142.912 36.249C142.802 36.1686 142.616 36.0903 142.355 36.0142L141.939 35.8935C141.698 35.8216 141.488 35.7391 141.308 35.646C141.133 35.5486 140.984 35.4069 140.862 35.2206C140.739 35.0344 140.678 34.7932 140.678 34.4969C140.678 34.0103 140.819 33.6421 141.1 33.3924C141.386 33.1384 141.786 33.0115 142.3 33.0115C142.606 33.0115 142.875 33.0411 143.108 33.1003C143.344 33.1554 143.583 33.2421 143.824 33.3606V34.2494C143.371 33.9954 142.863 33.8685 142.3 33.8685C142.063 33.8685 141.894 33.915 141.792 34.0081C141.694 34.1012 141.645 34.2345 141.645 34.4081C141.649 34.5731 141.698 34.6937 141.792 34.7699C141.89 34.8419 142.069 34.9159 142.33 34.9921L142.753 35.1127C143.01 35.1847 143.23 35.2714 143.414 35.373C143.597 35.4746 143.748 35.6227 143.866 35.8174C143.989 36.0078 144.05 36.2575 144.05 36.5664C144.046 37.0193 143.891 37.3748 143.585 37.6329C143.279 37.8911 142.857 38.0202 142.318 38.0202ZM144.883 33.1003H145.856V37.9123H144.883V33.1003ZM148.977 38.0202C148.471 38.0202 148.043 37.9123 147.692 37.6964C147.341 37.4763 147.076 37.178 146.896 36.8013C146.721 36.4204 146.633 35.9909 146.633 35.5126C146.633 35.0429 146.721 34.6197 146.896 34.243C147.076 33.8664 147.341 33.568 147.692 33.3479C148.047 33.1236 148.475 33.0115 148.977 33.0115C149.475 33.0115 149.899 33.1236 150.25 33.3479C150.605 33.568 150.87 33.8685 151.045 34.2494C151.225 34.626 151.314 35.0471 151.314 35.5126C151.314 35.9909 151.225 36.4204 151.045 36.8013C150.87 37.178 150.607 37.4763 150.256 37.6964C149.905 37.9123 149.479 38.0202 148.977 38.0202ZM148.977 37.1632C149.258 37.1632 149.499 37.0912 149.699 36.9473C149.903 36.8034 150.056 36.6067 150.158 36.357C150.264 36.103 150.317 35.8152 150.317 35.4936C150.317 35.1847 150.264 34.9075 150.158 34.662C150.052 34.4165 149.897 34.224 149.693 34.0843C149.493 33.9404 149.254 33.8685 148.977 33.8685C148.687 33.8685 148.44 33.9404 148.236 34.0843C148.036 34.224 147.885 34.4186 147.783 34.6683C147.681 34.918 147.63 35.1995 147.63 35.5126C147.63 36.0036 147.747 36.4014 147.979 36.7061C148.212 37.0108 148.544 37.1632 148.977 37.1632ZM156 33.1003V37.9123H154.886L153.069 34.7382V37.9123H152.096V33.1003H153.204L155.027 36.2744V33.1003H156Z" fill="#919EAB"/>
<path d="M51.822 26.2426V28.9041H41.3877V13.2654H51.7166V15.9269H44.7393V19.7024H50.6626V22.3639H44.7393V26.2426H51.822ZM62.037 13.2654C64.8758 13.2654 67.0188 13.9325 68.4662 15.2667C69.9278 16.5871 70.6585 18.5333 70.6585 21.1054C70.6585 23.6912 69.9349 25.6374 68.4873 26.9441C67.0399 28.2508 64.8898 28.9041 62.037 28.9041H56.4932V13.2654H62.037ZM67.2436 21.0435C67.2436 19.3242 66.8151 18.0657 65.9578 17.2679C65.1006 16.4564 63.7937 16.0507 62.037 16.0507H59.8448V26.1188H62.037C63.8218 26.1188 65.1357 25.7199 65.9789 24.9222C66.8221 24.1106 67.2436 22.8178 67.2436 21.0435ZM81.6578 29.2548C79.4094 29.2548 77.7231 28.7047 76.5988 27.6043C75.4745 26.5039 74.9124 24.9428 74.9124 22.9209V13.2654H78.2641V22.9209C78.2641 24.09 78.5452 24.9772 79.1072 25.5824C79.6834 26.1738 80.5336 26.4696 81.6578 26.4696C82.768 26.4696 83.6042 26.1738 84.1663 25.5824C84.7425 24.9772 85.0305 24.09 85.0305 22.9209V13.2654H88.3822V22.9209C88.3822 24.9428 87.827 26.5039 86.7169 27.6043C85.6067 28.7047 83.9204 29.2548 81.6578 29.2548ZM100.873 29.2548C98.1324 29.2548 96.0666 28.5327 94.6753 27.0885C93.2981 25.6306 92.6096 23.643 92.6096 21.126C92.6096 19.5855 92.9187 18.2032 93.5371 16.9791C94.1694 15.7412 95.104 14.7646 96.3406 14.0494C97.5772 13.3342 99.088 12.9766 100.873 12.9766C101.618 12.9766 102.278 13.0385 102.854 13.1622C103.444 13.2723 104.077 13.4648 104.751 13.7399V16.6077C103.557 16.0438 102.299 15.7618 100.978 15.7618C99.9944 15.7618 99.1302 15.9956 98.3853 16.4633C97.6405 16.9172 97.0573 17.5499 96.6357 18.3614C96.2281 19.1729 96.0244 20.0875 96.0244 21.1054C96.0244 22.7284 96.4531 24.0282 97.3103 25.0047C98.1674 25.9813 99.355 26.4696 100.873 26.4696C101.561 26.4696 102.236 26.3733 102.896 26.1807C103.571 25.9744 104.28 25.6786 105.025 25.2936L106.016 27.9963C105.201 28.4089 104.344 28.7184 103.444 28.9247C102.545 29.1447 101.688 29.2548 100.873 29.2548ZM119.885 25.3761H113.582L112.317 28.9041H108.945L114.636 13.0797H118.81L124.522 28.9041H121.15L119.885 25.3761ZM118.873 22.5496L116.723 16.5252L114.573 22.5496H118.873ZM134.005 23.0035H131.898V28.9041H128.546V13.2654H134.785C138.706 13.2654 140.667 14.8953 140.667 18.1551C140.667 20.5483 139.577 22.0613 137.399 22.694L141.341 28.9041H137.589L134.005 23.0035ZM131.898 20.2182H134.785C136.444 20.2182 137.273 19.5305 137.273 18.1551C137.273 17.4261 137.069 16.8965 136.661 16.5664C136.254 16.2226 135.629 16.0507 134.785 16.0507H131.898V20.2182ZM156 26.2426V28.9041H145.566V13.2654H155.895V15.9269H148.918V19.7024H154.841V22.3639H148.918V26.2426H156Z" fill="white"/>
</svg>
