<svg width="75" height="20" viewBox="0 0 75 20" fill="none" xmlns="http://www.w3.org/2000/svg">
<ellipse cx="69.1667" cy="14.1667" rx="4.16666" ry="4.16667" fill="#FA541C"/>
<path d="M49.4443 18.3334H45.3599L38.5287 8.05326V18.3334H34.4443V1.66675H38.5287L45.3599 11.9944V1.66675H49.4443V18.3334Z" fill="white"/>
<path d="M55.6432 4.91936V8.29068H61.111V11.4246H55.6432V15.0808H61.6665V18.3334H51.6665V1.66675H61.6665V4.91936H55.6432Z" fill="white"/>
<path d="M23.9119 18.3334C22.3841 18.3334 20.9798 17.978 19.6989 17.2671C18.4335 16.5563 17.4227 15.5672 16.6665 14.3C15.9258 13.0174 15.5554 11.5802 15.5554 9.98849C15.5554 8.39677 15.9258 6.96732 16.6665 5.70013C17.4227 4.43294 18.4335 3.44391 19.6989 2.73304C20.9798 2.02218 22.3841 1.66675 23.9119 1.66675C25.4397 1.66675 26.8363 2.02218 28.1017 2.73304C29.3826 3.44391 30.3856 4.43294 31.111 5.70013C31.8517 6.96732 32.2221 8.39677 32.2221 9.98849C32.2221 11.5802 31.8517 13.0174 31.111 14.3C30.3702 15.5672 29.3671 16.5563 28.1017 17.2671C26.8363 17.978 25.4397 18.3334 23.9119 18.3334ZM23.9119 14.7173C25.2082 14.7173 26.2421 14.2846 27.0137 13.4192C27.8008 12.5538 28.1943 11.4102 28.1943 9.98849C28.1943 8.55131 27.8008 7.40775 27.0137 6.5578C26.2421 5.6924 25.2082 5.2597 23.9119 5.2597C22.6001 5.2597 21.5508 5.68467 20.7637 6.53462C19.9921 7.38457 19.6063 8.53586 19.6063 9.98849C19.6063 11.4257 19.9921 12.577 20.7637 13.4424C21.5508 14.2923 22.6001 14.7173 23.9119 14.7173Z" fill="white"/>
<path d="M6.22968 15.0096H13.3332V18.3334H1.6665V15.247L8.72296 4.99058H1.6665V1.66675H13.3332V4.75317L6.22968 15.0096Z" fill="white"/>
</svg>
